<svg width="158" height="57" viewBox="0 0 158 57" fill="none" xmlns="http://www.w3.org/2000/svg">
<path d="M63.854 6.21973C64.1274 6.21973 64.3724 6.32796 64.5889 6.54443C64.8167 6.7609 64.9307 7.01156 64.9307 7.29639C65.056 12.1613 65.1927 16.411 65.3408 20.0454C65.5003 23.6685 65.6712 26.6592 65.8535 29.0176C65.9105 29.0176 65.9731 29.0176 66.0415 29.0176C66.9188 29.0176 67.853 28.9492 68.8442 28.8125C69.8468 28.6758 70.8267 28.5618 71.7837 28.4707C72.8774 28.3568 73.9142 28.2998 74.894 28.2998C76.8765 28.2998 78.6253 28.5277 80.1406 28.9834C80.3799 29.0518 80.5679 29.1942 80.7046 29.4106C80.8413 29.6271 80.9097 29.855 80.9097 30.0942C80.9097 30.3905 80.7729 30.6639 80.4995 30.9146C80.2375 31.1652 79.9128 31.2336 79.5254 31.1196C78.1696 30.7209 76.603 30.5215 74.8257 30.5215C73.7775 30.5215 72.6895 30.5841 71.5615 30.7095C70.445 30.8348 69.4139 30.9544 68.4683 31.0684C68.0011 31.1253 67.5853 31.1709 67.2207 31.2051C66.8675 31.2507 66.5371 31.2734 66.2295 31.2734C65.637 31.2734 65.0503 31.1652 64.4692 30.9487C64.0021 30.7778 63.7401 30.3734 63.6831 29.7354C63.4894 27.3883 63.2786 24.3407 63.0508 20.5923C62.8229 16.8439 62.709 12.429 62.709 7.34766C62.709 7.05143 62.8229 6.78939 63.0508 6.56152C63.29 6.33366 63.5578 6.21973 63.854 6.21973ZM99.6818 6.20264C99.9553 6.20264 100.206 6.31657 100.434 6.54443C100.662 6.7609 100.776 7.01156 100.776 7.29639L100.998 30.436C100.998 30.7892 100.878 31.057 100.639 31.2393C100.411 31.4215 100.16 31.5127 99.8869 31.5127C99.6135 31.5127 99.3571 31.4215 99.1179 31.2393C98.89 31.0684 98.7761 30.8063 98.7761 30.4531L98.6735 20.1992L87.7702 20.0625L87.8728 30.6411C87.8728 31.0057 87.7531 31.2791 87.5139 31.4614C87.286 31.6437 87.0297 31.7349 86.7448 31.7349C86.4714 31.7349 86.2207 31.6437 85.9929 31.4614C85.765 31.2905 85.6511 31.0285 85.6511 30.6753L85.4289 7.53564C85.4289 7.18245 85.5428 6.91471 85.7707 6.73242C86.01 6.55013 86.2663 6.45898 86.5397 6.45898C86.8132 6.45898 87.0638 6.55013 87.2917 6.73242C87.531 6.90332 87.6506 7.16536 87.6506 7.51855L87.7531 17.8408L98.6564 17.9775C98.6451 16.2002 98.628 14.4229 98.6052 12.6455C98.5938 10.8682 98.5767 9.09082 98.5539 7.31348C98.5539 7.01725 98.6678 6.7609 98.8957 6.54443C99.1236 6.31657 99.3856 6.20264 99.6818 6.20264ZM106.252 34.8452C105.944 34.8452 105.682 34.737 105.466 34.5205C105.249 34.304 105.141 34.042 105.141 33.7344C105.141 33.4268 105.249 33.1647 105.466 32.9482C105.682 32.7318 105.944 32.6235 106.252 32.6235H114.472C114.78 32.6235 115.042 32.7318 115.258 32.9482C115.475 33.1647 115.583 33.4268 115.583 33.7344C115.583 34.042 115.475 34.304 115.258 34.5205C115.042 34.737 114.78 34.8452 114.472 34.8452H106.252ZM121.042 6.21973C121.316 6.21973 121.56 6.32796 121.777 6.54443C122.005 6.7609 122.119 7.01156 122.119 7.29639C122.244 12.1613 122.381 16.411 122.529 20.0454C122.688 23.6685 122.859 26.6592 123.042 29.0176C123.099 29.0176 123.161 29.0176 123.23 29.0176C124.107 29.0176 125.041 28.9492 126.032 28.8125C127.035 28.6758 128.015 28.5618 128.972 28.4707C130.066 28.3568 131.102 28.2998 132.082 28.2998C134.065 28.2998 135.813 28.5277 137.329 28.9834C137.568 29.0518 137.756 29.1942 137.893 29.4106C138.029 29.6271 138.098 29.855 138.098 30.0942C138.098 30.3905 137.961 30.6639 137.688 30.9146C137.426 31.1652 137.101 31.2336 136.713 31.1196C135.358 30.7209 133.791 30.5215 132.014 30.5215C130.966 30.5215 129.878 30.5841 128.75 30.7095C127.633 30.8348 126.602 30.9544 125.656 31.0684C125.189 31.1253 124.773 31.1709 124.409 31.2051C124.056 31.2507 123.725 31.2734 123.418 31.2734C122.825 31.2734 122.238 31.1652 121.657 30.9487C121.19 30.7778 120.928 30.3734 120.871 29.7354C120.678 27.3883 120.467 24.3407 120.239 20.5923C120.011 16.8439 119.897 12.429 119.897 7.34766C119.897 7.05143 120.011 6.78939 120.239 6.56152C120.478 6.33366 120.746 6.21973 121.042 6.21973ZM144.873 20.2847L144.89 30.6924C144.89 31.0456 144.77 31.3133 144.531 31.4956C144.303 31.6779 144.053 31.769 143.779 31.769C143.494 31.769 143.238 31.6779 143.01 31.4956C142.782 31.3133 142.668 31.0456 142.668 30.6924L142.617 7.56982C142.617 7.2736 142.731 7.01725 142.959 6.80078C143.187 6.57292 143.443 6.45898 143.728 6.45898C143.739 6.45898 143.751 6.45898 143.762 6.45898C147.932 6.5957 151.139 7.51286 153.384 9.21045C155.138 10.5321 156.015 12.0815 156.015 13.8589C156.015 15.4881 155.258 16.8952 153.742 18.0801C151.84 19.5612 149.208 20.3018 145.847 20.3018C145.528 20.3018 145.203 20.2961 144.873 20.2847ZM144.856 18.063C145.186 18.0744 145.505 18.0801 145.813 18.0801C148.684 18.0801 150.871 17.499 152.375 16.3369C153.321 15.6077 153.794 14.7817 153.794 13.8589C153.794 12.8221 153.213 11.8651 152.051 10.9878C150.364 9.73454 147.96 8.98828 144.839 8.74902L144.856 18.063Z" fill="#41403E"/>
<path d="M66.64 39.5C67.98 39.5 69.03 39.82 69.79 40.46C70.55 41.1 70.93 41.98 70.93 43.1C70.93 44.22 70.55 45.1 69.79 45.74C69.03 46.37 67.98 46.685 66.64 46.685H63.82V50H62.71V39.5H66.64ZM66.61 45.71C67.65 45.71 68.445 45.485 68.995 45.035C69.545 44.575 69.82 43.93 69.82 43.1C69.82 42.25 69.545 41.6 68.995 41.15C68.445 40.69 67.65 40.46 66.61 40.46H63.82V45.71H66.61ZM80.8312 46.385H74.2312C74.2912 47.205 74.6062 47.87 75.1762 48.38C75.7462 48.88 76.4662 49.13 77.3362 49.13C77.8262 49.13 78.2762 49.045 78.6862 48.875C79.0962 48.695 79.4512 48.435 79.7512 48.095L80.3512 48.785C80.0012 49.205 79.5612 49.525 79.0312 49.745C78.5112 49.965 77.9362 50.075 77.3062 50.075C76.4962 50.075 75.7762 49.905 75.1462 49.565C74.5262 49.215 74.0412 48.735 73.6912 48.125C73.3412 47.515 73.1662 46.825 73.1662 46.055C73.1662 45.285 73.3312 44.595 73.6612 43.985C74.0012 43.375 74.4612 42.9 75.0412 42.56C75.6312 42.22 76.2912 42.05 77.0212 42.05C77.7512 42.05 78.4062 42.22 78.9862 42.56C79.5662 42.9 80.0212 43.375 80.3512 43.985C80.6812 44.585 80.8462 45.275 80.8462 46.055L80.8312 46.385ZM77.0212 42.965C76.2612 42.965 75.6212 43.21 75.1012 43.7C74.5912 44.18 74.3012 44.81 74.2312 45.59H79.8262C79.7562 44.81 79.4612 44.18 78.9412 43.7C78.4312 43.21 77.7912 42.965 77.0212 42.965ZM88.0689 49.52C87.8689 49.7 87.6189 49.84 87.3189 49.94C87.0289 50.03 86.7239 50.075 86.4039 50.075C85.6639 50.075 85.0939 49.875 84.6939 49.475C84.2939 49.075 84.0939 48.51 84.0939 47.78V43.01H82.6839V42.11H84.0939V40.385H85.1589V42.11H87.5589V43.01H85.1589V47.72C85.1589 48.19 85.2739 48.55 85.5039 48.8C85.7439 49.04 86.0839 49.16 86.5239 49.16C86.7439 49.16 86.9539 49.125 87.1539 49.055C87.3639 48.985 87.5439 48.885 87.6939 48.755L88.0689 49.52ZM98.8534 50.09C98.0734 50.09 97.3234 49.965 96.6034 49.715C95.8934 49.465 95.3434 49.135 94.9534 48.725L95.3884 47.87C95.7684 48.25 96.2734 48.56 96.9034 48.8C97.5334 49.03 98.1834 49.145 98.8534 49.145C99.7934 49.145 100.498 48.975 100.968 48.635C101.438 48.285 101.673 47.835 101.673 47.285C101.673 46.865 101.543 46.53 101.283 46.28C101.033 46.03 100.723 45.84 100.353 45.71C99.9834 45.57 99.4684 45.42 98.8084 45.26C98.0184 45.06 97.3884 44.87 96.9184 44.69C96.4484 44.5 96.0434 44.215 95.7034 43.835C95.3734 43.455 95.2084 42.94 95.2084 42.29C95.2084 41.76 95.3484 41.28 95.6284 40.85C95.9084 40.41 96.3384 40.06 96.9184 39.8C97.4984 39.54 98.2184 39.41 99.0784 39.41C99.6784 39.41 100.263 39.495 100.833 39.665C101.413 39.825 101.913 40.05 102.333 40.34L101.958 41.225C101.518 40.935 101.048 40.72 100.548 40.58C100.048 40.43 99.5584 40.355 99.0784 40.355C98.1584 40.355 97.4634 40.535 96.9934 40.895C96.5334 41.245 96.3034 41.7 96.3034 42.26C96.3034 42.68 96.4284 43.02 96.6784 43.28C96.9384 43.53 97.2584 43.725 97.6384 43.865C98.0284 43.995 98.5484 44.14 99.1984 44.3C99.9684 44.49 100.588 44.68 101.058 44.87C101.538 45.05 101.943 45.33 102.273 45.71C102.603 46.08 102.768 46.585 102.768 47.225C102.768 47.755 102.623 48.24 102.333 48.68C102.053 49.11 101.618 49.455 101.028 49.715C100.438 49.965 99.7134 50.09 98.8534 50.09ZM109.882 42.05C110.872 42.05 111.657 42.34 112.237 42.92C112.827 43.49 113.122 44.325 113.122 45.425V50H112.057V45.53C112.057 44.71 111.852 44.085 111.442 43.655C111.032 43.225 110.447 43.01 109.687 43.01C108.837 43.01 108.162 43.265 107.662 43.775C107.172 44.275 106.927 44.97 106.927 45.86V50H105.862V38.87H106.927V43.49C107.217 43.03 107.617 42.675 108.127 42.425C108.637 42.175 109.222 42.05 109.882 42.05ZM120.168 50.075C119.408 50.075 118.723 49.905 118.113 49.565C117.503 49.215 117.023 48.735 116.673 48.125C116.323 47.515 116.148 46.825 116.148 46.055C116.148 45.285 116.323 44.595 116.673 43.985C117.023 43.375 117.503 42.9 118.113 42.56C118.723 42.22 119.408 42.05 120.168 42.05C120.928 42.05 121.613 42.22 122.223 42.56C122.833 42.9 123.308 43.375 123.648 43.985C123.998 44.595 124.173 45.285 124.173 46.055C124.173 46.825 123.998 47.515 123.648 48.125C123.308 48.735 122.833 49.215 122.223 49.565C121.613 49.905 120.928 50.075 120.168 50.075ZM120.168 49.13C120.728 49.13 121.228 49.005 121.668 48.755C122.118 48.495 122.468 48.13 122.718 47.66C122.968 47.19 123.093 46.655 123.093 46.055C123.093 45.455 122.968 44.92 122.718 44.45C122.468 43.98 122.118 43.62 121.668 43.37C121.228 43.11 120.728 42.98 120.168 42.98C119.608 42.98 119.103 43.11 118.653 43.37C118.213 43.62 117.863 43.98 117.603 44.45C117.353 44.92 117.228 45.455 117.228 46.055C117.228 46.655 117.353 47.19 117.603 47.66C117.863 48.13 118.213 48.495 118.653 48.755C119.103 49.005 119.608 49.13 120.168 49.13ZM131.312 42.05C132.052 42.05 132.722 42.22 133.322 42.56C133.922 42.89 134.392 43.36 134.732 43.97C135.072 44.58 135.242 45.275 135.242 46.055C135.242 46.845 135.072 47.545 134.732 48.155C134.392 48.765 133.922 49.24 133.322 49.58C132.732 49.91 132.062 50.075 131.312 50.075C130.672 50.075 130.092 49.945 129.572 49.685C129.062 49.415 128.642 49.025 128.312 48.515V52.91H127.247V42.11H128.267V43.67C128.587 43.15 129.007 42.75 129.527 42.47C130.057 42.19 130.652 42.05 131.312 42.05ZM131.237 49.13C131.787 49.13 132.287 49.005 132.737 48.755C133.187 48.495 133.537 48.13 133.787 47.66C134.047 47.19 134.177 46.655 134.177 46.055C134.177 45.455 134.047 44.925 133.787 44.465C133.537 43.995 133.187 43.63 132.737 43.37C132.287 43.11 131.787 42.98 131.237 42.98C130.677 42.98 130.172 43.11 129.722 43.37C129.282 43.63 128.932 43.995 128.672 44.465C128.422 44.925 128.297 45.455 128.297 46.055C128.297 46.655 128.422 47.19 128.672 47.66C128.932 48.13 129.282 48.495 129.722 48.755C130.172 49.005 130.677 49.13 131.237 49.13ZM138.198 50.075C137.978 50.075 137.788 49.995 137.628 49.835C137.478 49.675 137.403 49.48 137.403 49.25C137.403 49.02 137.478 48.83 137.628 48.68C137.788 48.52 137.978 48.44 138.198 48.44C138.418 48.44 138.608 48.52 138.768 48.68C138.928 48.83 139.008 49.02 139.008 49.25C139.008 49.48 138.928 49.675 138.768 49.835C138.608 49.995 138.418 50.075 138.198 50.075Z" fill="#A3A2A1"/>
<path d="M30.6945 6.8231C31.8801 5.9681 33.2595 5.7002 34.2 5.7002H38.3211C39.6122 5.70009 40.879 6.05078 41.9862 6.7148L47.0677 9.7643C47.4893 10.0176 47.8381 10.3756 48.0803 10.8036C48.3226 11.2316 48.4499 11.715 48.45 12.2067V15.6752C48.45 16.809 47.9996 17.8964 47.1979 18.6981C46.3962 19.4998 45.3088 19.9502 44.175 19.9502H42.75V42.8585C43.9498 43.0437 45.1525 43.4912 46.1557 44.3262C47.6092 45.5346 48.45 47.3957 48.45 49.8752C48.45 50.2531 48.2999 50.6156 48.0326 50.8828C47.7654 51.1501 47.4029 51.3002 47.025 51.3002H14.25C12.4562 51.3004 10.7078 50.7364 9.25227 49.6881C7.79671 48.6398 6.70773 47.1603 6.13945 45.4589C5.57117 43.7575 5.55238 41.9205 6.08575 40.2079C6.61912 38.4953 7.67763 36.9937 9.11144 35.9159C9.41395 35.6977 9.78997 35.6067 10.1588 35.6627C10.5276 35.7186 10.8597 35.9169 11.084 36.215C11.3082 36.5131 11.4066 36.8872 11.358 37.257C11.3095 37.6269 11.1179 37.9629 10.8243 38.193C9.86802 38.9115 9.16199 39.9126 8.80616 41.0545C8.45034 42.1964 8.46275 43.4214 8.84165 44.5559C9.22055 45.6903 9.94673 46.6769 10.9174 47.3758C11.888 48.0747 13.0539 48.4506 14.25 48.4502C15.0708 48.4502 15.5895 48.2507 15.9315 48.0227C16.2696 47.7894 16.54 47.4708 16.7152 47.0993C16.9442 46.631 17.0751 46.1209 17.1 45.6002V45.4719L17.1114 45.1584C17.2059 43.5088 17.454 41.8715 17.8524 40.2678C18.6019 37.2753 20.121 33.4392 23.2161 30.3413C28.4715 25.0887 28.5 18.0435 28.5 15.6752V11.4002C28.5 9.22565 29.4405 7.7294 30.6945 6.8231ZM31.1334 19.6652C30.6916 23.2448 29.3407 28.2494 25.2339 32.3591C22.629 34.9611 21.298 38.25 20.6197 40.9575C20.2664 42.3771 20.045 43.8264 19.9585 45.2867C19.9547 45.3693 19.9519 45.452 19.95 45.5346V45.6942L19.9386 45.8852C19.8756 46.7793 19.6333 47.6517 19.2261 48.4502H36.8191C36.5341 47.5382 35.9556 46.6005 34.9609 46.079C34.2825 45.7428 33.5319 45.5784 32.775 45.6002H29.925C29.5471 45.6002 29.1846 45.4501 28.9174 45.1828C28.6501 44.9156 28.5 44.5531 28.5 44.1752C28.5 43.7973 28.6501 43.4348 28.9174 43.1676C29.1846 42.9003 29.5471 42.7502 29.925 42.7502H32.775C33.2766 42.7502 33.7497 42.7901 34.2 42.8642V35.6252C34.2 35.2473 34.3501 34.8848 34.6174 34.6176C34.8846 34.3503 35.2471 34.2002 35.625 34.2002C36.0029 34.2002 36.3654 34.3503 36.6326 34.6176C36.8999 34.8848 37.05 35.2473 37.05 35.6252V44.027C38.703 45.2183 39.4639 46.991 39.7518 48.4502H45.4518C45.238 47.5154 44.8105 46.914 44.3317 46.5179C43.5993 45.9051 42.5362 45.6002 41.325 45.6002C40.9471 45.6002 40.5846 45.4501 40.3174 45.1828C40.0501 44.9156 39.9 44.5531 39.9 44.1752V18.5252C39.9 18.1473 40.0501 17.7848 40.3174 17.5176C40.5846 17.2503 40.9471 17.1002 41.325 17.1002H44.175C44.5529 17.1002 44.9154 16.9501 45.1826 16.6828C45.4499 16.4156 45.6 16.0531 45.6 15.6752V12.2067L40.5213 9.15725C39.8565 8.75924 39.096 8.54941 38.3211 8.5502H34.2C33.7155 8.5502 32.9574 8.70695 32.3617 9.1373C31.8345 9.5135 31.35 10.1547 31.35 11.4002V15.6752C31.35 15.9231 31.4355 16.325 31.6521 16.6242C31.8145 16.8522 32.0995 17.1002 32.775 17.1002C33.4504 17.1002 33.7354 16.8494 33.8979 16.6242C34.0877 16.3435 34.1925 16.014 34.2 15.6752C34.2 15.2973 34.3501 14.9348 34.6174 14.6676C34.8846 14.4003 35.2471 14.2502 35.625 14.2502C36.0029 14.2502 36.3654 14.4003 36.6326 14.6676C36.8999 14.9348 37.05 15.2973 37.05 15.6752C37.05 16.3791 36.8505 17.4023 36.2121 18.2886C35.5195 19.2491 34.3795 19.9502 32.775 19.9502C32.215 19.9555 31.6588 19.859 31.1334 19.6652Z" fill="#DEAD6F"/>
</svg>
