<svg width="19" height="14" viewBox="0 0 19 14" fill="none" xmlns="http://www.w3.org/2000/svg">
<path d="M18.6281 3.18977C18.5315 3.07162 18.4099 2.97647 18.2719 2.91121C18.134 2.84596 17.9832 2.81224 17.8306 2.8125H4.75309L4.48969 1.31805C4.4616 1.15886 4.37832 1.01466 4.25448 0.910775C4.13063 0.806891 3.97415 0.749966 3.8125 0.75H1.0625C0.880164 0.75 0.705295 0.822433 0.576364 0.951364C0.447433 1.0803 0.375 1.25516 0.375 1.4375C0.375 1.61984 0.447433 1.7947 0.576364 1.92364C0.705295 2.05257 0.880164 2.125 1.0625 2.125H3.23586L5.19781 13.2445C5.2259 13.4036 5.30918 13.5478 5.43302 13.6517C5.55687 13.7556 5.71335 13.8125 5.875 13.8125H16.875C17.0573 13.8125 17.2322 13.7401 17.3611 13.6111C17.4901 13.4822 17.5625 13.3073 17.5625 13.125C17.5625 12.9427 17.4901 12.7678 17.3611 12.6389C17.2322 12.5099 17.0573 12.4375 16.875 12.4375H6.45164L6.2093 11.0625H16.5931C16.8315 11.0622 17.0625 10.9795 17.247 10.8285C17.4315 10.6774 17.5581 10.4673 17.6055 10.2336L18.843 4.04613C18.8728 3.89639 18.869 3.74189 18.8318 3.59379C18.7947 3.4457 18.7251 3.3077 18.6281 3.18977Z" fill="#41403E"/>
</svg>
