<svg width="18" height="20" viewBox="0 0 18 20" fill="none" xmlns="http://www.w3.org/2000/svg">
<path d="M12.2934 1.77492C11.4572 0.872149 10.2893 0.375 9.00025 0.375C7.70431 0.375 6.53255 0.869141 5.70025 1.76633C4.85892 2.6734 4.449 3.90617 4.54525 5.23734C4.73603 7.86359 6.7345 10 9.00025 10C11.266 10 13.261 7.86402 13.4548 5.2382C13.5524 3.91906 13.1399 2.68887 12.2934 1.77492ZM16.5627 19.625H1.43775C1.23977 19.6276 1.04372 19.586 0.86384 19.5033C0.683963 19.4205 0.52479 19.2987 0.397902 19.1468C0.118605 18.8129 0.006027 18.357 0.0893864 17.8959C0.452043 15.8841 1.58384 14.1942 3.36275 13.0078C4.94314 11.9546 6.94505 11.375 9.00025 11.375C11.0554 11.375 13.0574 11.9551 14.6377 13.0078C16.4167 14.1938 17.5484 15.8837 17.9111 17.8955C17.9945 18.3566 17.8819 18.8125 17.6026 19.1463C17.4757 19.2984 17.3166 19.4203 17.1367 19.5031C16.9568 19.5859 16.7608 19.6275 16.5627 19.625Z" fill="#41403E"/>
</svg>
